<?xml version="1.0" encoding="UTF-8"?><svg id="_レイヤー_1" xmlns="http://www.w3.org/2000/svg" viewBox="0 0 283.78 30.07"><path d="M0,.78c1.53,4.52,2.36,9.37,2.36,14.41s-.83,9.88-2.36,14.41h10.83V.78H0Z" fill="#b8193f"/><path d="M29.26,28.1c-1.61-2.05-2.49-4.7-2.27-7.51.47-5.94,5.67-10.38,11.61-9.91,5.69.45,9.79,5.42,9.5,11.12-.32,6.14-3.62,8.56-6.43,8.14-1.88-.29-3.32-1.81-3.17-3.72.14-1.76,1.65-3.44,3.95-3.26,1.17.09,2.17.72,2.78,1.62.06-4.06-3.04-7.52-7.15-7.84-4.02-.32-7.54,2.69-7.86,6.71-.17,2.24.5,4.39,1.57,6.12.06.09.1.19.06.28-.04.1-.14.16-.27.17-1.03.09-2.09.09-3.17,0-6.15-.48-11.39-3.54-13.73-7.86-1.34-2.47-2.03-5.27-1.79-8.27C13.54,5.58,20.8-.6,29.08.05c4.03.32,7.63,1.99,10.39,4.53.11.1.16.24.11.35-.06.13-.25.19-.44.14-.89-.24-1.81-.42-2.76-.5-7.32-.58-13.69,4.56-14.23,11.47-.41,5.26,2.57,9.99,7.11,12.05" fill="#b8193f"/><path d="M69.93,16.87c1.54-.68,2.96-1.57,4.23-2.64h0v-1.69h-10.84v1.69h8.02c-1.15.88-2.42,1.61-3.79,2.15v1.04h-7.27v1.69h7.27v2.02c0,.72-.59,1.31-1.31,1.31h-1.84v1.69h2.9c1.45,0,2.62-1.17,2.62-2.62v-2.41h7.27v-1.69h-7.27v-.54Z" fill="#3e3a39"/><path d="M62.66,11.26h12.17v2.17h2.37v-3.86h-2.95c.55-.79,1.03-1.63,1.43-2.51h-2.19c-.35.88-.78,1.72-1.28,2.51h-2.19c-.4-.87-.86-1.71-1.38-2.51h-2.12c.56.79,1.06,1.63,1.48,2.51h-2.32c-.4-.87-.87-1.71-1.39-2.51h-2.12c.56.79,1.06,1.63,1.48,2.51h-3.35v3.86h2.37v-2.17Z" fill="#3e3a39"/><path d="M127.65,9.8v-2.56h-2.54v2.63c0,5.29-2.89,9.89-7.17,12.34v1.89c4.2-1.49,7.48-4.95,8.72-9.27,1.21,4.18,4.24,7.58,8.17,9.29v-2.72c-4.26-2.12-7.18-6.52-7.18-11.6Z" fill="#3e3a39"/><path d="M92.47,7.24h-2.36v1.87h-4.11v1.52h2.76c-.73,1.16-1.67,2.18-2.76,3.01v2.15c1.93-1,3.55-2.5,4.7-4.34l-1.34-.82h4.03l-1.34.82c1.14,1.84,2.76,3.35,4.69,4.34v-2.15c-1.09-.82-2.03-1.84-2.76-3.01h2.76v-1.52h-4.28v-1.87Z" fill="#3e3a39"/><path d="M86,18.86v-2.6c-.67-.68-1.24-1.46-1.7-2.3v-1.54h1.7v-1.52h-1.7v-3.66h-2.2v3.66h-2.24v1.52h2.18c-.51,1.79-1.25,3.49-2.18,5.06v1.95c.85-.93,1.6-1.95,2.24-3.04v7.75h2.2v-7.6c.46.86,1.03,1.64,1.7,2.33Z" fill="#3e3a39"/><path d="M94.95,14.65h-1.86c-.41,1.14-1,2.2-1.71,3.15-.72-.96-1.3-2.01-1.71-3.15h-1.87c.45,1.71,1.22,3.28,2.24,4.66-1.16,1.1-2.53,1.98-4.04,2.56v2.26c2.05-.66,3.88-1.8,5.38-3.29,1.49,1.48,3.33,2.62,5.37,3.29v-2.26c-1.52-.58-2.88-1.46-4.04-2.56,1.02-1.38,1.79-2.95,2.24-4.66Z" fill="#3e3a39"/><path d="M111.26,17.79c.74,1.12,1.39,2.3,1.95,3.54-1.93.19-3.87.34-5.82.44,1.16-1.63,2.09-3.45,2.73-5.39h6.22v-1.86h-4.84v-2.89h4.16v-1.86h-4.16v-2.52h-2.37v2.52h-4.25v1.86h4.25v2.89h-4.94v1.86h3.42c-.51,1.96-1.3,3.8-2.33,5.48-.51.02-1.02.04-1.54.05v2.21c3.45-.17,6.83-.56,10.14-1.17.15.39.28.78.4,1.18h2.36c-.82-2.29-1.97-4.42-3.39-6.35h-1.98Z" fill="#3e3a39"/><path d="M103.26,9.13c-1.12-.87-2.42-1.52-3.84-1.89v1.86c1.38.52,2.67,1.23,3.84,2.1v-2.07Z" fill="#3e3a39"/><path d="M103.26,12.69c-1.12-.87-2.42-1.52-3.84-1.89v1.86c1.38.52,2.67,1.23,3.84,2.1v-2.07Z" fill="#3e3a39"/><path d="M99.43,21.05v3.21c.88-.87,1.66-1.84,2.32-2.89.92-1.45,1.49-3.17,1.55-5h-1.82c-.06,1.83-.84,3.47-2.05,4.67Z" fill="#3e3a39"/><path d="M225.7,10.59h7.73v-1.69h-7.73v-.92h8.38v-1.69h-4.5c.28-.55.54-1.12.77-1.7h-2.79c-.19.58-.42,1.15-.67,1.7h-4.94c-.32-.57-.66-1.12-1.02-1.66h-2.66c.39.54.76,1.09,1.1,1.66h-4.8v1.69h8.38v.92h-7.73v1.69h7.73v.92h-9.19v1.69h4.75c-1.29,1.4-2.9,2.52-4.75,3.09v2.5c1.35-.56,2.62-1.28,3.79-2.13v7.04c-1.27.08-2.54.13-3.79.15v1.98c3.77-.08,8.04-.63,10.56-1.17v-1.71c-1.3.21-2.65.39-4.02.52v-2.17h3.4c2.52,2.74,6.2,4.46,10.22,4.46h.97v-2.25h-1.59c-.79,0-1.56-.1-2.3-.27,1-.75,1.93-1.6,2.78-2.52l-1.94-1.23c-.23.29-.48.58-.74.86v-3.69c1.17.85,2.44,1.56,3.79,2.13v-2.5c-1.85-.57-3.46-1.69-4.75-3.09h4.75v-1.69h-9.19v-.92ZM226.53,21.3h3.65c-.45.42-.91.83-1.4,1.21-.8-.35-1.55-.76-2.26-1.21ZM228.35,19.82h-8.05v-1.05h8.05v1.05ZM220.3,17.29v-1.05h8.05v1.05h-8.05ZM228.86,14.76h-3.16v-.93h-2.75v.93h-3.16c.5-.49.97-1.02,1.41-1.57h6.24c.44.55.91,1.07,1.41,1.57Z" fill="#3e3a39"/><path d="M153.64,7.68c2.67-.13,5.45-.4,7.91-.92l-1.07-2.12c-6.06,1.44-13.46,1.52-17.29,1.52l.53,1.62c1.68,0,4.18.05,6.96,0v1.35h-9.08v2.11h6.59c-1.84,2.03-4.08,3.68-6.59,4.84v1.93c1.03-.34,2.02-.76,2.98-1.24v9.07h15.47v-9.1c.86.41,1.76.75,2.68,1.03v-2.52c-2.71-.8-5.16-2.19-7.22-4.01h7.22v-2.11h-9.08v-1.45ZM150.68,12.35v4.03h-5.36c1.98-1.08,3.78-2.44,5.36-4.03ZM157.08,23.93h-9.56v-1.87h9.56v1.87ZM157.08,20.16h-9.56v-1.87h9.56v1.87ZM159.33,16.38h-5.69v-4.58c1.58,1.87,3.51,3.43,5.69,4.58Z" fill="#3e3a39"/><path d="M262.66,4.71v21.13h21.13V4.71h-21.13ZM280.83,23.93h-15.21V6.61h6.12v1.41h-4.57v1.69h4.57v1.05h-5.48v1.69h13.92v-1.69h-5.48v-1.05h4.57v-1.69h-4.57v-1.41h6.13v17.33Z" fill="#3e3a39"/><path d="M280.18,18.24l-.92-.5h.12v-4.44h-12.31v4.44h3.86c-1.39,1.08-2.96,1.93-4.66,2.51v2.14c2-.73,3.85-1.79,5.48-3.09v4h2.96v-3.57c1.45,1.45,3.32,2.47,5.41,2.85v-1.99c-.6-.15-1.18-.35-1.74-.58.64-.55,1.25-1.14,1.81-1.77ZM270.02,14.78h6.39v1.48h-6.39v-1.48ZM274.7,17.74h3.52c-.47.51-.97,1-1.5,1.45-.72-.42-1.39-.91-2.02-1.45Z" fill="#3e3a39"/><rect x="181.83" y="4.71" width="2.96" height="21.13" fill="#3e3a39"/><rect x="174.56" y="5.77" width="2.95" height="18.51" fill="#3e3a39"/><path d="M167.3,15.93c0,2.95-.99,5.66-2.67,7.81v2.11c3.37-1.92,5.63-5.54,5.63-9.69V4.71h-2.96v11.22Z" fill="#3e3a39"/><path d="M250.26,16.77c1.93-.85,3.71-1.96,5.29-3.31h0v-2.11h-13.55v2.11h10.03c-1.43,1.1-3.02,2.01-4.73,2.69v1.3h-9.08v2.11h9.08v2.53c0,.9-.73,1.64-1.64,1.64h-2.31v2.11h3.63c1.8,0,3.27-1.46,3.27-3.27v-3.01h9.08v-2.11h-9.08v-.68Z" fill="#3e3a39"/><path d="M241.17,9.75h15.21v2.71h2.96v-4.83h-3.69c.68-.99,1.28-2.04,1.79-3.14h-2.73c-.43,1.1-.97,2.15-1.61,3.14h-2.74c-.5-1.09-1.08-2.14-1.73-3.14h-2.65c.7.99,1.32,2.04,1.85,3.14h-2.9c-.5-1.09-1.08-2.14-1.73-3.14h-2.65c.7.99,1.32,2.04,1.86,3.14h-4.19v4.83h2.96v-2.72Z" fill="#3e3a39"/><path d="M208.04,4.5h-2.73c-.43,1.1-.97,2.15-1.6,3.14h-2.74c-.5-1.09-1.08-2.14-1.74-3.14h-2.65c.7.99,1.33,2.04,1.86,3.14h-2.9c-.5-1.09-1.08-2.14-1.73-3.14h-2.65c.7.99,1.32,2.04,1.85,3.14h-4.19v4.83h2.96v-2.72h15.21v2.71h2.96v-4.83h-3.69c.69-.99,1.29-2.04,1.79-3.14Z" fill="#3e3a39"/><path d="M201.54,15.99h7.47v-2.32h-8.16v-2.67h-2.96v2.67h-8.16v2.32h6.76c-1.87,3.02-4.53,5.5-7.69,7.14v2.6c3.58-1.57,6.7-4.01,9.08-7.04v7.15h2.96v-7.19c2.39,3.04,5.5,5.49,9.08,7.08v-3.25c-3.33-1.41-6.22-3.66-8.4-6.49Z" fill="#3e3a39"/></svg>